<svg width="1444" height="628" viewBox="0 0 1444 628" fill="none" xmlns="http://www.w3.org/2000/svg">
<path d="M450.744 11.5321V616.633H253.885V389.115H0.549088V11.5321H197.409V246.311H253.885V11.5321H450.744ZM950.248 397.183C950.248 532.726 867.148 627.928 725.151 627.928C583.154 627.928 500.86 532.726 500.86 397.183V230.982C500.86 97.8599 583.154 0.236922 725.151 0.236922C867.148 0.236922 950.248 97.8599 950.248 230.982V397.183ZM689.652 405.251C689.652 439.137 696.106 456.886 725.151 456.886C754.196 456.886 761.457 439.137 761.457 405.251V222.914C761.457 190.642 754.196 171.279 725.151 171.279C696.106 171.279 689.652 190.642 689.652 222.914V405.251ZM1443.49 11.5321V616.633H1246.63V389.115H993.292V11.5321H1190.15V246.311H1246.63V11.5321H1443.49Z" fill="#EF3824"/>
</svg>
