<svg width="138" height="96" viewBox="0 0 138 96" fill="none" xmlns="http://www.w3.org/2000/svg">
<path d="M133.22 94.2049C133.22 93.4325 133.989 92.6602 134.757 92.6602C135.525 92.6602 136.293 93.4325 136.293 94.2049C136.293 94.9773 135.525 95.7497 134.757 95.7497C133.989 96.0072 133.22 95.2348 133.22 94.2049Z" fill="#EF3824"/>
<path d="M94.2941 36.0179V45.8016H123.745V0.230469H77.9041L70.9896 34.7306H67.4043L60.4898 0.230469H14.3929V45.8016H44.0998V36.0179H47.6851L49.4777 45.8016H88.66L90.4527 36.0179H94.2941Z" fill="#EF3824"/>
<path d="M1.58832 52.4961C0.820038 52.4961 0.0517578 53.2685 0.0517578 54.0409C0.0517578 54.8133 0.820038 55.5857 1.58832 55.5857C2.3566 55.5857 3.12488 54.8133 3.12488 54.0409C3.12488 53.2685 2.3566 52.4961 1.58832 52.4961Z" fill="#EF3824"/>
<path d="M14.9051 50.6934C13.1125 50.6934 11.5759 52.2381 11.5759 54.0404C11.5759 55.8426 13.1125 57.3874 14.9051 57.3874C16.6978 57.3874 18.2344 55.8426 18.2344 54.0404C18.2344 52.2381 16.6978 50.6934 14.9051 50.6934Z" fill="#EF3824"/>
<path d="M28.2221 49.6641C25.6612 49.6641 23.8685 51.7238 23.8685 54.0409C23.8685 56.6156 25.9173 58.4178 28.2221 58.4178C30.7831 58.4178 32.5757 56.3581 32.5757 54.0409C32.5757 51.7238 30.527 49.6641 28.2221 49.6641Z" fill="#EF3824"/>
<path d="M41.5389 49.9219C39.2341 49.9219 37.4414 51.7241 37.4414 54.0413C37.4414 56.3585 39.2341 58.1607 41.5389 58.1607C43.8437 58.1607 45.6364 56.3585 45.6364 54.0413C45.6364 51.7241 43.8437 49.9219 41.5389 49.9219Z" fill="#EF3824"/>
<path d="M94.8063 59.7054C97.8794 59.7054 100.44 57.1307 100.44 54.0412C100.44 50.9516 97.8794 48.377 94.8063 48.377C91.7332 48.377 89.1722 50.9516 89.1722 54.0412C89.1722 57.1307 91.7332 59.7054 94.8063 59.7054Z" fill="#EF3824"/>
<path d="M115.806 54.0408C115.806 57.3878 118.367 59.9625 121.696 59.9625C125.025 59.9625 127.586 57.3878 127.586 54.0408C127.586 50.6938 125.025 48.1191 121.696 48.1191C118.367 48.1191 115.806 50.9512 115.806 54.0408Z" fill="#EF3824"/>
<path d="M134.757 57.1291C136.294 57.1291 137.574 55.8417 137.574 54.2969C137.574 52.7522 136.294 51.4648 134.757 51.4648C133.22 51.4648 131.94 52.7522 131.94 54.2969C131.94 55.5843 133.22 57.1291 134.757 57.1291Z" fill="#EF3824"/>
<path d="M134.757 64.5957C133.22 64.5957 131.94 65.883 131.94 67.4278C131.94 68.9726 133.22 70.2599 134.757 70.2599C136.294 70.2599 137.574 68.9726 137.574 67.4278C137.83 65.883 136.55 64.5957 134.757 64.5957Z" fill="#EF3824"/>
<path d="M2.61271 67.4283C2.61271 66.9134 2.10053 66.3984 1.58834 66.3984C1.07615 66.3984 0.563965 66.9134 0.563965 67.4283C0.563965 67.9432 1.07615 68.4582 1.58834 68.4582C2.10053 68.4582 2.61271 68.2007 2.61271 67.4283Z" fill="#EF3824"/>
<path d="M14.9051 65.3691C13.6246 65.3691 12.6002 66.399 12.6002 67.6863C12.6002 68.9736 13.6246 70.0035 14.9051 70.0035C16.1855 70.0035 17.2099 68.9736 17.2099 67.6863C16.9538 66.399 15.9294 65.3691 14.9051 65.3691Z" fill="#EF3824"/>
<path d="M28.2221 64.8535C26.6855 64.8535 25.6611 66.1408 25.6611 67.4282C25.6611 68.9729 26.9416 70.0028 28.2221 70.0028C29.7586 70.0028 30.783 68.7155 30.783 67.4282C30.783 66.1408 29.5025 64.8535 28.2221 64.8535Z" fill="#EF3824"/>
<path d="M41.5388 65.1113C40.2584 65.1113 39.234 66.1412 39.234 67.4285C39.234 68.7158 40.2584 69.7457 41.5388 69.7457C42.8193 69.7457 43.8437 68.7158 43.8437 67.4285C43.8437 66.1412 42.8193 65.1113 41.5388 65.1113Z" fill="#EF3824"/>
<path d="M54.8557 61.7637C51.7826 61.7637 49.2217 64.3383 49.2217 67.4279C49.2217 70.5174 51.7826 73.0921 54.8557 73.0921C57.9289 73.0921 60.4898 70.5174 60.4898 67.4279C60.4898 64.3383 57.9289 61.7637 54.8557 61.7637Z" fill="#EF3824"/>
<path d="M121.44 61.25C118.879 61.25 116.574 62.7948 115.806 65.3694C115.294 63.3097 113.757 61.5075 111.708 60.4776C114.013 59.1903 115.294 56.8731 115.294 54.041C115.294 49.9216 111.965 46.832 108.123 46.832C104.026 46.832 100.953 50.1791 100.953 54.041C100.953 56.8731 102.489 59.1903 104.538 60.4776C102.233 61.7649 100.696 63.8246 100.184 66.6567C99.6721 64.0821 97.3672 62.0224 94.8063 62.0224C91.7332 62.0224 89.1722 64.597 89.1722 67.6866C89.1722 70.7762 91.7332 73.3508 94.8063 73.3508C97.6233 73.3508 99.9282 71.2911 100.184 68.7165C100.696 72.5784 103.77 75.668 107.867 75.668C105.05 75.9254 102.745 78.2426 102.745 81.0747C102.745 84.1643 105.306 86.4815 108.123 86.4815C111.196 86.4815 113.501 83.9068 113.501 81.0747C113.501 78.2426 111.196 75.668 108.379 75.668C111.965 75.668 114.782 73.0933 115.806 69.7463C116.574 72.0635 118.879 73.8657 121.44 73.8657C124.769 73.8657 127.586 71.0336 127.586 67.6866C127.586 64.0821 124.769 61.25 121.44 61.25Z" fill="#EF3824"/>
<path d="M1.58832 79.2715C0.820038 79.2715 0.0517578 80.0439 0.0517578 80.8163C0.0517578 81.5887 0.820038 82.3611 1.58832 82.3611C2.3566 82.3611 3.12488 81.5887 3.12488 80.8163C3.12488 80.0439 2.3566 79.2715 1.58832 79.2715Z" fill="#EF3824"/>
<path d="M14.9051 79.2715C14.1368 79.2715 13.3685 80.0439 13.3685 80.8163C13.3685 81.5887 14.1368 82.3611 14.9051 82.3611C15.6734 82.3611 16.4417 81.5887 16.4417 80.8163C16.4417 80.0439 15.6734 79.2715 14.9051 79.2715Z" fill="#EF3824"/>
<path d="M28.222 79.7871C27.7098 79.7871 27.1976 80.302 27.1976 80.817C27.1976 81.3319 27.7098 81.8468 28.222 81.8468C28.7342 81.8468 29.2464 81.3319 29.2464 80.817C29.2464 80.302 28.7342 79.7871 28.222 79.7871Z" fill="#EF3824"/>
<path d="M41.5389 80.0449C41.0267 80.0449 40.7706 80.3024 40.7706 80.8173C40.7706 81.3322 41.0267 81.5897 41.5389 81.5897C42.0511 81.5897 42.3072 81.3322 42.3072 80.8173C42.3072 80.5598 42.0511 80.0449 41.5389 80.0449Z" fill="#EF3824"/>
<path d="M54.8557 77.7266C53.063 77.7266 51.5265 79.2713 51.5265 81.0736C51.5265 82.8758 53.063 84.4206 54.8557 84.4206C56.6484 84.4206 58.1849 82.8758 58.1849 81.0736C58.1849 79.0139 56.6484 77.7266 54.8557 77.7266Z" fill="#EF3824"/>
<path d="M68.1726 76.9551C66.1238 76.9551 64.3312 78.7573 64.3312 80.817C64.3312 82.8767 66.1238 84.679 68.1726 84.679C70.2213 84.679 72.014 82.8767 72.014 80.817C72.014 78.7573 70.2213 76.9551 68.1726 76.9551Z" fill="#EF3824"/>
<path d="M81.4895 77.7266C79.6968 77.7266 78.1603 79.2713 78.1603 81.0736C78.1603 82.8758 79.6968 84.4206 81.4895 84.4206C83.2822 84.4206 84.8187 82.8758 84.8187 81.0736C84.8187 79.0139 83.2822 77.7266 81.4895 77.7266Z" fill="#EF3824"/>
<path d="M94.8064 76.9551C92.7576 76.9551 90.965 78.7573 90.965 80.817C90.965 82.8767 92.7576 84.679 94.8064 84.679C96.8551 84.679 98.6478 82.8767 98.6478 80.817C98.6478 78.7573 96.8551 76.9551 94.8064 76.9551Z" fill="#EF3824"/>
<path d="M121.44 75.9258C118.623 75.9258 116.574 78.243 116.574 80.8176C116.574 83.6497 118.879 85.7094 121.44 85.7094C124.257 85.7094 126.306 83.3922 126.306 80.8176C126.562 78.243 124.257 75.9258 121.44 75.9258Z" fill="#EF3824"/>
<path d="M134.757 77.9844C133.22 77.9844 131.94 79.2717 131.94 80.8165C131.94 82.3613 133.22 83.6486 134.757 83.6486C136.294 83.6486 137.574 82.3613 137.574 80.8165C137.574 79.2717 136.55 77.9844 134.757 77.9844Z" fill="#EF3824"/>
<path d="M1.58836 93.6895C1.33227 93.6895 1.07617 93.9469 1.07617 94.2044C1.07617 94.4618 1.33227 94.7193 1.58836 94.7193C1.84445 94.7193 2.10055 94.4618 2.10055 94.2044C2.10055 93.9469 1.84445 93.6895 1.58836 93.6895Z" fill="#EF3824"/>
<path d="M14.9051 93.6895C14.649 93.6895 14.3929 93.9469 14.3929 94.2044C14.3929 94.4618 14.649 94.7193 14.9051 94.7193C15.1612 94.7193 15.4173 94.4618 15.4173 94.2044C15.4173 93.9469 15.1612 93.6895 14.9051 93.6895Z" fill="#EF3824"/>
<path d="M28.2221 93.6895C27.9661 93.6895 27.71 93.9469 27.71 94.2044C27.71 94.4618 27.9661 94.7193 28.2221 94.7193C28.4782 94.7193 28.7343 94.4618 28.7343 94.2044C28.7343 93.9469 28.4782 93.6895 28.2221 93.6895Z" fill="#EF3824"/>
<path d="M41.5389 93.6895C41.2828 93.6895 41.0267 93.9469 41.0267 94.2044C41.0267 94.4618 41.2828 94.7193 41.5389 94.7193C41.795 94.7193 42.0511 94.4618 42.0511 94.2044C42.0511 93.9469 41.795 93.6895 41.5389 93.6895Z" fill="#EF3824"/>
<path d="M54.8557 93.6895C54.5996 93.6895 54.3435 93.9469 54.3435 94.2044C54.3435 94.4618 54.5996 94.7193 54.8557 94.7193C55.1118 94.7193 55.3679 94.4618 55.3679 94.2044C55.3679 93.9469 55.1118 93.6895 54.8557 93.6895Z" fill="#EF3824"/>
<path d="M68.1727 93.6895C67.9166 93.6895 67.6605 93.9469 67.6605 94.2044C67.6605 94.4618 67.9166 94.7193 68.1727 94.7193C68.4288 94.7193 68.6849 94.4618 68.6849 94.2044C68.6849 93.9469 68.4288 93.6895 68.1727 93.6895Z" fill="#EF3824"/>
<path d="M81.4895 93.6895C81.2334 93.6895 80.9773 93.9469 80.9773 94.2044C80.9773 94.4618 81.2334 94.7193 81.4895 94.7193C81.7456 94.7193 82.0017 94.4618 82.0017 94.2044C82.0017 93.9469 81.7456 93.6895 81.4895 93.6895Z" fill="#EF3824"/>
<path d="M94.8064 93.1758C94.2942 93.1758 93.782 93.6907 93.782 94.2056C93.782 94.7206 94.2942 95.2355 94.8064 95.2355C95.3185 95.2355 95.8307 94.7206 95.8307 94.2056C96.0868 93.6907 95.5746 93.1758 94.8064 93.1758Z" fill="#EF3824"/>
<path d="M108.123 92.6602C107.355 92.6602 106.587 93.4325 106.587 94.2049C106.587 94.9773 107.355 95.7497 108.123 95.7497C108.892 95.7497 109.66 94.9773 109.66 94.2049C109.66 93.4325 109.148 92.6602 108.123 92.6602Z" fill="#EF3824"/>
<path d="M121.44 92.6602C120.672 92.6602 119.903 93.4325 119.903 94.2049C119.903 94.9773 120.672 95.7497 121.44 95.7497C122.208 95.7497 122.977 94.9773 122.977 94.2049C122.977 93.4325 122.464 92.6602 121.44 92.6602Z" fill="#EF3824"/>
<path d="M81.4896 47.6044C78.4164 47.6044 75.8555 49.6641 75.3433 52.7537C74.8311 49.4067 71.758 46.832 68.1727 46.832C64.5874 46.832 61.5143 49.4067 61.0021 52.7537C60.4899 49.9216 57.9289 47.6044 54.8558 47.6044C51.2705 47.6044 48.4535 50.4365 48.4535 54.041C48.4535 57.6455 51.2705 60.4776 54.8558 60.4776C57.9289 60.4776 60.4899 58.4179 61.0021 55.3283C61.5143 57.903 63.3069 59.9627 65.6118 60.9925C63.0508 62.0224 61.0021 64.597 61.0021 67.6866C61.0021 71.5486 64.0752 74.6381 67.9166 74.6381C71.758 74.6381 74.8311 71.5486 74.8311 67.6866C74.8311 64.597 73.0385 62.0224 70.2214 60.9925C72.5263 60.2202 74.3189 57.903 74.8311 55.3283C75.3433 58.1604 77.9042 60.4776 80.9774 60.4776C84.5627 60.4776 87.3797 57.6455 87.3797 54.041C87.8919 50.694 85.0749 47.6044 81.4896 47.6044Z" fill="#EF3824"/>
<path d="M81.4895 61.7637C78.4164 61.7637 75.8555 64.3383 75.8555 67.4279C75.8555 70.5174 78.4164 73.0921 81.4895 73.0921C84.5626 73.0921 87.1236 70.5174 87.1236 67.4279C87.1236 64.3383 84.5626 61.7637 81.4895 61.7637Z" fill="#EF3824"/>
</svg>
