<svg width="138" height="97" viewBox="0 0 138 97" fill="none" xmlns="http://www.w3.org/2000/svg">
<path d="M133.175 94.746C133.175 93.9736 133.943 93.2012 134.711 93.2012C135.48 93.2012 136.248 93.9736 136.248 94.746C136.248 95.5183 135.48 96.2907 134.711 96.2907C133.943 96.5482 133.175 95.7758 133.175 94.746Z" fill="white"/>
<path d="M94.2478 36.559V46.3426H123.699V0.771484H77.8579L70.9433 35.2716H67.358L60.4435 0.771484H14.3467V46.3426H44.0535V36.559H47.6388L49.4315 46.3426H88.6138L90.4064 36.559H94.2478Z" fill="white"/>
<path d="M1.54242 53.0371C0.77414 53.0371 0.00585938 53.8095 0.00585938 54.5819C0.00585938 55.3543 0.77414 56.1267 1.54242 56.1267C2.3107 56.1267 3.07898 55.3543 3.07898 54.5819C3.07898 53.8095 2.3107 53.0371 1.54242 53.0371Z" fill="white"/>
<path d="M14.8592 51.2344C13.0666 51.2344 11.53 52.7792 11.53 54.5814C11.53 56.3836 13.0666 57.9284 14.8592 57.9284C16.6519 57.9284 18.1885 56.3836 18.1885 54.5814C18.1885 52.7792 16.6519 51.2344 14.8592 51.2344Z" fill="white"/>
<path d="M28.1759 50.2051C25.6149 50.2051 23.8223 52.2648 23.8223 54.582C23.8223 57.1566 25.871 58.9589 28.1759 58.9589C30.7368 58.9589 32.5294 56.8991 32.5294 54.582C32.5294 52.2648 30.4807 50.2051 28.1759 50.2051Z" fill="white"/>
<path d="M41.493 50.4629C39.1882 50.4629 37.3955 52.2651 37.3955 54.5823C37.3955 56.8995 39.1882 58.7017 41.493 58.7017C43.7978 58.7017 45.5905 56.8995 45.5905 54.5823C45.5905 52.2651 43.7978 50.4629 41.493 50.4629Z" fill="white"/>
<path d="M94.76 60.2444C97.8331 60.2444 100.394 57.6698 100.394 54.5802C100.394 51.4907 97.8331 48.916 94.76 48.916C91.6869 48.916 89.126 51.4907 89.126 54.5802C89.126 57.6698 91.6869 60.2444 94.76 60.2444Z" fill="white"/>
<path d="M115.76 54.5818C115.76 57.9289 118.321 60.5035 121.65 60.5035C124.979 60.5035 127.54 57.9289 127.54 54.5818C127.54 51.2348 124.979 48.6602 121.65 48.6602C118.321 48.6602 115.76 51.4923 115.76 54.5818Z" fill="white"/>
<path d="M134.712 57.6701C136.248 57.6701 137.529 56.3827 137.529 54.838C137.529 53.2932 136.248 52.0059 134.712 52.0059C133.175 52.0059 131.895 53.2932 131.895 54.838C131.895 56.1253 133.175 57.6701 134.712 57.6701Z" fill="white"/>
<path d="M134.712 65.1387C133.175 65.1387 131.895 66.426 131.895 67.9708C131.895 69.5156 133.175 70.8029 134.712 70.8029C136.248 70.8029 137.529 69.5156 137.529 67.9708C137.785 66.426 136.504 65.1387 134.712 65.1387Z" fill="white"/>
<path d="M2.56633 67.9693C2.56633 67.4544 2.05414 66.9395 1.54195 66.9395C1.02977 66.9395 0.517578 67.4544 0.517578 67.9693C0.517578 68.4842 1.02977 68.9992 1.54195 68.9992C2.05414 68.9992 2.56633 68.7417 2.56633 67.9693Z" fill="white"/>
<path d="M14.8595 65.9102C13.5791 65.9102 12.5547 66.94 12.5547 68.2273C12.5547 69.5146 13.5791 70.5445 14.8595 70.5445C16.14 70.5445 17.1644 69.5146 17.1644 68.2273C16.9083 66.94 15.8839 65.9102 14.8595 65.9102Z" fill="white"/>
<path d="M28.1762 65.3945C26.6396 65.3945 25.6152 66.6819 25.6152 67.9692C25.6152 69.514 26.8957 70.5438 28.1762 70.5438C29.7127 70.5438 30.7371 69.2565 30.7371 67.9692C30.7371 66.6819 29.4566 65.3945 28.1762 65.3945Z" fill="white"/>
<path d="M41.4933 65.6523C40.2128 65.6523 39.1885 66.6822 39.1885 67.9695C39.1885 69.2568 40.2128 70.2867 41.4933 70.2867C42.7738 70.2867 43.7982 69.2568 43.7982 67.9695C43.7982 66.6822 42.7738 65.6523 41.4933 65.6523Z" fill="white"/>
<path d="M54.8098 62.3066C51.7367 62.3066 49.1758 64.8813 49.1758 67.9708C49.1758 71.0604 51.7367 73.635 54.8098 73.635C57.883 73.635 60.4439 71.0604 60.4439 67.9708C60.4439 64.8813 57.883 62.3066 54.8098 62.3066Z" fill="white"/>
<path d="M121.395 61.791C118.834 61.791 116.529 63.3358 115.761 65.9104C115.248 63.8507 113.712 62.0485 111.663 61.0186C113.968 59.7313 115.248 57.4141 115.248 54.582C115.248 50.4626 111.919 47.373 108.078 47.373C103.98 47.373 100.907 50.7201 100.907 54.582C100.907 57.4141 102.444 59.7313 104.493 61.0186C102.188 62.3059 100.651 64.3657 100.139 67.1978C99.6268 64.6231 97.3219 62.5634 94.761 62.5634C91.6879 62.5634 89.127 65.138 89.127 68.2276C89.127 71.3172 91.6879 73.8918 94.761 73.8918C97.578 73.8918 99.8829 71.8321 100.139 69.2575C100.651 73.1194 103.724 76.209 107.822 76.209C105.005 76.4665 102.7 78.7836 102.7 81.6157C102.7 84.7053 105.261 87.0225 108.078 87.0225C111.151 87.0225 113.456 84.4478 113.456 81.6157C113.456 78.7836 111.151 76.209 108.334 76.209C111.919 76.209 114.736 73.6344 115.761 70.2873C116.529 72.6045 118.834 74.4067 121.395 74.4067C124.724 74.4067 127.541 71.5746 127.541 68.2276C127.541 64.6231 124.724 61.791 121.395 61.791Z" fill="white"/>
<path d="M1.54242 79.8125C0.77414 79.8125 0.00585938 80.5849 0.00585938 81.3573C0.00585938 82.1297 0.77414 82.9021 1.54242 82.9021C2.3107 82.9021 3.07898 82.1297 3.07898 81.3573C3.07898 80.5849 2.3107 79.8125 1.54242 79.8125Z" fill="white"/>
<path d="M14.8588 79.8125C14.0905 79.8125 13.3223 80.5849 13.3223 81.3573C13.3223 82.1297 14.0905 82.9021 14.8588 82.9021C15.6271 82.9021 16.3954 82.1297 16.3954 81.3573C16.3954 80.5849 15.6271 79.8125 14.8588 79.8125Z" fill="white"/>
<path d="M28.1767 80.3281C27.6645 80.3281 27.1523 80.8431 27.1523 81.358C27.1523 81.8729 27.6645 82.3878 28.1767 82.3878C28.6889 82.3878 29.2011 81.8729 29.2011 81.358C29.2011 80.8431 28.6889 80.3281 28.1767 80.3281Z" fill="white"/>
<path d="M41.4929 80.584C40.9807 80.584 40.7246 80.8414 40.7246 81.3564C40.7246 81.8713 40.9807 82.1288 41.4929 82.1288C42.0051 82.1288 42.2612 81.8713 42.2612 81.3564C42.2612 81.0989 42.0051 80.584 41.4929 80.584Z" fill="white"/>
<path d="M54.8097 78.2676C53.017 78.2676 51.4805 79.8124 51.4805 81.6146C51.4805 83.4169 53.017 84.9616 54.8097 84.9616C56.6023 84.9616 58.1389 83.4169 58.1389 81.6146C58.1389 79.5549 56.6023 78.2676 54.8097 78.2676Z" fill="white"/>
<path d="M68.1266 77.4961C66.0778 77.4961 64.2852 79.2983 64.2852 81.3581C64.2852 83.4178 66.0778 85.22 68.1266 85.22C70.1753 85.22 71.968 83.4178 71.968 81.3581C71.968 79.2983 70.1753 77.4961 68.1266 77.4961Z" fill="white"/>
<path d="M81.4435 78.2676C79.6508 78.2676 78.1143 79.8124 78.1143 81.6146C78.1143 83.4169 79.6508 84.9616 81.4435 84.9616C83.2361 84.9616 84.7727 83.4169 84.7727 81.6146C84.7727 79.5549 83.2361 78.2676 81.4435 78.2676Z" fill="white"/>
<path d="M94.7603 77.4961C92.7116 77.4961 90.9189 79.2983 90.9189 81.3581C90.9189 83.4178 92.7116 85.22 94.7603 85.22C96.8091 85.22 98.6017 83.4178 98.6017 81.3581C98.6017 79.2983 96.8091 77.4961 94.7603 77.4961Z" fill="white"/>
<path d="M121.394 76.4668C118.577 76.4668 116.528 78.784 116.528 81.3586C116.528 84.1907 118.833 86.2504 121.394 86.2504C124.211 86.2504 126.26 83.9332 126.26 81.3586C126.516 78.784 124.211 76.4668 121.394 76.4668Z" fill="white"/>
<path d="M134.712 78.5254C133.175 78.5254 131.895 79.8127 131.895 81.3575C131.895 82.9023 133.175 84.1896 134.712 84.1896C136.248 84.1896 137.529 82.9023 137.529 81.3575C137.529 79.8127 136.504 78.5254 134.712 78.5254Z" fill="white"/>
<path d="M1.54246 94.2305C1.28637 94.2305 1.03027 94.4879 1.03027 94.7454C1.03027 95.0029 1.28637 95.2603 1.54246 95.2603C1.79855 95.2603 2.05465 95.0029 2.05465 94.7454C2.05465 94.4879 1.79855 94.2305 1.54246 94.2305Z" fill="white"/>
<path d="M14.8598 94.2305C14.6038 94.2305 14.3477 94.4879 14.3477 94.7454C14.3477 95.0029 14.6038 95.2603 14.8598 95.2603C15.1159 95.2603 15.372 95.0029 15.372 94.7454C15.372 94.4879 15.1159 94.2305 14.8598 94.2305Z" fill="white"/>
<path d="M28.1763 94.2305C27.9202 94.2305 27.6641 94.4879 27.6641 94.7454C27.6641 95.0029 27.9202 95.2603 28.1763 95.2603C28.4323 95.2603 28.6884 95.0029 28.6884 94.7454C28.6884 94.4879 28.4323 94.2305 28.1763 94.2305Z" fill="white"/>
<path d="M41.4927 94.2305C41.2366 94.2305 40.9805 94.4879 40.9805 94.7454C40.9805 95.0029 41.2366 95.2603 41.4927 95.2603C41.7487 95.2603 42.0048 95.0029 42.0048 94.7454C42.0048 94.4879 41.7487 94.2305 41.4927 94.2305Z" fill="white"/>
<path d="M54.81 94.2305C54.5539 94.2305 54.2979 94.4879 54.2979 94.7454C54.2979 95.0029 54.5539 95.2603 54.81 95.2603C55.0661 95.2603 55.3222 95.0029 55.3222 94.7454C55.3222 94.4879 55.0661 94.2305 54.81 94.2305Z" fill="white"/>
<path d="M68.1264 94.2305C67.8704 94.2305 67.6143 94.4879 67.6143 94.7454C67.6143 95.0029 67.8704 95.2603 68.1264 95.2603C68.3825 95.2603 68.6386 95.0029 68.6386 94.7454C68.6386 94.4879 68.3825 94.2305 68.1264 94.2305Z" fill="white"/>
<path d="M81.4438 94.2305C81.1877 94.2305 80.9316 94.4879 80.9316 94.7454C80.9316 95.0029 81.1877 95.2603 81.4438 95.2603C81.6999 95.2603 81.956 95.0029 81.956 94.7454C81.956 94.4879 81.6999 94.2305 81.4438 94.2305Z" fill="white"/>
<path d="M94.7607 93.7168C94.2485 93.7168 93.7363 94.2317 93.7363 94.7466C93.7363 95.2616 94.2485 95.7765 94.7607 95.7765C95.2729 95.7765 95.7851 95.2616 95.7851 94.7466C96.0412 94.2317 95.529 93.7168 94.7607 93.7168Z" fill="white"/>
<path d="M108.078 93.2012C107.309 93.2012 106.541 93.9736 106.541 94.746C106.541 95.5183 107.309 96.2907 108.078 96.2907C108.846 96.2907 109.614 95.5183 109.614 94.746C109.614 93.9736 109.102 93.2012 108.078 93.2012Z" fill="white"/>
<path d="M121.394 93.2012C120.626 93.2012 119.858 93.9736 119.858 94.746C119.858 95.5183 120.626 96.2907 121.394 96.2907C122.162 96.2907 122.931 95.5183 122.931 94.746C122.931 93.9736 122.418 93.2012 121.394 93.2012Z" fill="white"/>
<path d="M81.4443 48.1454C78.3711 48.1454 75.8102 50.2051 75.298 53.2947C74.7858 49.9477 71.7127 47.373 68.1274 47.373C64.5421 47.373 61.469 49.9477 60.9568 53.2947C60.4446 50.4626 57.8837 48.1454 54.8105 48.1454C51.2252 48.1454 48.4082 50.9775 48.4082 54.582C48.4082 58.1865 51.2252 61.0186 54.8105 61.0186C57.8837 61.0186 60.4446 58.9589 60.9568 55.8694C61.469 58.444 63.2616 60.5037 65.5665 61.5336C63.0055 62.5634 60.9568 65.138 60.9568 68.2276C60.9568 72.0896 64.0299 75.1791 67.8713 75.1791C71.7127 75.1791 74.7858 72.0896 74.7858 68.2276C74.7858 65.138 72.9932 62.5634 70.1761 61.5336C72.481 60.7612 74.2736 58.444 74.7858 55.8694C75.298 58.7015 77.859 61.0186 80.9321 61.0186C84.5174 61.0186 87.3344 58.1865 87.3344 54.582C87.8466 51.235 85.0296 48.1454 81.4443 48.1454Z" fill="white"/>
<path d="M81.4436 62.3066C78.3705 62.3066 75.8096 64.8813 75.8096 67.9708C75.8096 71.0604 78.3705 73.635 81.4436 73.635C84.5167 73.635 87.0777 71.0604 87.0777 67.9708C87.0777 64.8813 84.5167 62.3066 81.4436 62.3066Z" fill="white"/>
</svg>
